<?xml version="1.0" encoding="UTF-8"?>
<svg width="28px" height="26px" viewBox="0 0 28 26" version="1.1" xmlns="http://www.w3.org/2000/svg" xmlns:xlink="http://www.w3.org/1999/xlink">
    <!-- Generator: Sketch 47.1 (45422) - http://www.bohemiancoding.com/sketch -->
    <title>mortarboard@1x</title>
    <desc>Created with Sketch.</desc>
    <defs></defs>
    <g id="Page-1" stroke="none" stroke-width="1" fill="none" fill-rule="evenodd">
        <g id="Final-Screen_1_Teacher" transform="translate(-561.000000, -434.000000)" fill="#FFFFFF">
            <g id="Group-2" transform="translate(533.000000, 419.000000)">
                <g id="mortarboard" transform="translate(28.000000, 15.000000)">
                    <g>
                        <path d="M19.6936293,23.1727708 C19.443678,23.1100729 19.1907902,23.2616042 19.1286439,23.508875 L18.6625463,25.357651 C18.5996488,25.6060052 18.7519415,25.8564583 19.0018927,25.9183438 C19.039522,25.9281615 19.0779024,25.9323594 19.1152585,25.9323594 C19.3241659,25.9323594 19.5138146,25.7922031 19.5669463,25.5824427 L20.0332488,23.7334635 C20.0956683,23.485651 19.9435805,23.2349271 19.6936293,23.1727708 Z" id="Fill-1"></path>
                        <path d="M13.9864098,13.914401 C14.0469854,13.914401 14.1074927,13.903026 14.1643122,13.8795312 L19.2926829,11.7754948 C19.5306146,11.6779271 19.6435024,11.4073646 19.5450244,11.1716719 C19.4466146,10.9355052 19.1728976,10.8244635 18.9357171,10.9212187 L13.9864098,12.9521979 L0.932331707,7.59694271 L0.932331707,7.44351563 C0.932331707,7.18825521 0.723492683,6.98120312 0.466302439,6.98120312 C0.208907317,6.98120312 0,7.18825521 0,7.44351563 L0,7.90555729 C0,8.09283854 0.113639024,8.26156771 0.288126829,8.33272917 L13.8081659,13.8795312 C13.8649854,13.903026 13.9258341,13.914401 13.9864098,13.914401 Z" id="Fill-3"></path>
                        <path d="M19.5325268,18.6500573 C19.4186146,18.4212708 19.1398439,18.3268177 18.9082634,18.4402969 C18.0228488,18.8743073 16.5439024,19.3789375 14.4527122,19.4477292 L14.4527122,15.3011354 C14.4527122,15.0461458 14.2438049,14.8390937 13.9864098,14.8390937 C13.7289463,14.8390937 13.5201073,15.0461458 13.5201073,15.3011354 L13.5201073,19.4437344 C7.73120976,19.2607187 5.86326829,15.7838281 5.59467317,15.205125 L5.59467317,12.0656927 C5.59467317,11.8104323 5.38576585,11.6033125 5.12837073,11.6033125 C4.87118049,11.6033125 4.66234146,11.8104323 4.66234146,12.0656927 L4.66234146,15.3011354 C4.66234146,15.3598385 4.67354146,15.4182708 4.69539512,15.4730469 C4.77645854,15.6732604 6.76070244,20.3855573 13.9864098,20.3855573 C16.5118732,20.3855573 18.2816098,19.778349 19.3212293,19.2689115 C19.5525366,19.1557031 19.6471902,18.8788438 19.5325268,18.6500573 Z" id="Fill-5"></path>
                        <path d="M20.9794439,23.6213385 C20.7217756,23.6213385 20.5134146,23.8283906 20.5134146,24.0833802 L20.5134146,25.4700469 C20.5134146,25.7253073 20.7217756,25.9323594 20.9794439,25.9323594 C21.2374537,25.9323594 21.4457463,25.7253073 21.4457463,25.4700469 L21.4457463,24.0833802 C21.4457463,23.8283906 21.2374537,23.6213385 20.9794439,23.6213385 Z" id="Fill-6"></path>
                        <path d="M27.5064488,6.98120312 C27.2487805,6.98120312 27.0401463,7.18825521 27.0401463,7.44351562 L27.0401463,7.59585937 L21.4457463,9.87891667 L21.4457463,9.04366667 L27.6846927,6.48368229 C27.8589073,6.41252083 27.9728195,6.24379167 27.9728195,6.05678125 C27.9728195,5.86956771 27.8589073,5.7013125 27.685239,5.62967708 L14.1643122,0.082875 C14.0501268,0.036359375 13.9223512,0.036359375 13.8081659,0.082875 L0.288126829,5.62967708 C0.113639024,5.7013125 0,5.86956771 0,6.05678125 C0,6.2440625 0.113639024,6.41279167 0.288126829,6.48395312 L13.8081659,12.0304844 C13.8652585,12.0540469 13.9258341,12.0656927 13.9864098,12.0656927 C14.0469854,12.0656927 14.1074927,12.0540469 14.1645854,12.0304844 L19.0531122,10.0248958 C19.2913171,9.92780208 19.4042049,9.65751042 19.306,9.42134375 C19.2075902,9.18544792 18.9346927,9.07406771 18.6969659,9.17116146 L13.9864098,11.1032187 L1.68546341,6.05678125 L13.9864098,1.01014062 L26.2873561,6.05678125 L20.9346439,8.25283333 L15.8079122,6.35490104 C15.8348195,6.25861979 15.8510732,6.15996875 15.8510732,6.05678125 C15.8510732,5.27921875 15.0321073,4.67011458 13.9864098,4.67011458 C12.9406439,4.67011458 12.121678,5.27921875 12.121678,6.05678125 C12.121678,6.83414062 12.9406439,7.44351562 13.9864098,7.44351562 C14.4529854,7.44351562 14.8693659,7.31710417 15.1930049,7.11397917 L20.5134146,9.08334375 L20.5134146,20.4707344 C19.9721268,20.6624844 19.5808098,21.1705677 19.5808098,21.7722917 C19.5808098,22.5369219 20.2084878,23.1589583 20.9794439,23.1589583 C21.7506732,23.1589583 22.3781463,22.5369219 22.3781463,21.7722917 C22.3781463,21.1705677 21.9870341,20.6624844 21.4457463,20.4707344 L21.4457463,17.8473073 C22.7841463,16.8454271 23.264039,15.5116406 23.2848683,15.4523958 C23.3016683,15.4039844 23.310478,15.3526615 23.310478,15.3014062 L23.310478,12.0656927 C23.310478,11.8107031 23.1021171,11.6035833 22.8444488,11.6035833 C22.586439,11.6035833 22.3781463,11.8107031 22.3781463,12.0656927 L22.3781463,15.2159583 C22.297561,15.4119062 22.0172195,16.016 21.4457463,16.6121719 L21.4457463,10.8786302 L27.6841463,8.33327083 C27.8589073,8.26210937 27.9728195,8.09283854 27.9728195,7.90555729 L27.9728195,7.44351562 C27.9728195,7.18825521 27.7641854,6.98120312 27.5064488,6.98120312 Z M13.9864098,6.51889063 C13.417122,6.51889063 13.0538049,6.24541667 13.0538049,6.05678125 C13.0538049,5.86821354 13.417122,5.59446875 13.9864098,5.59446875 C14.5556976,5.59446875 14.9187415,5.86821354 14.9187415,6.05678125 C14.9187415,6.24541667 14.5556976,6.51889063 13.9864098,6.51889063 Z M20.9794439,22.2346042 C20.722322,22.2346042 20.5134146,22.0270104 20.5134146,21.7722917 C20.5134146,21.5175729 20.722322,21.31025 20.9794439,21.31025 C21.2369073,21.31025 21.4457463,21.5175729 21.4457463,21.7722917 C21.4457463,22.0270104 21.2369073,22.2346042 20.9794439,22.2346042 Z" id="Fill-8"></path>
                        <path d="M22.8303122,23.508875 C22.7678927,23.2616042 22.5141854,23.1103437 22.2652585,23.1727708 C22.0153073,23.2346563 21.863561,23.485651 21.9259805,23.7334635 L22.3922829,25.5824427 C22.4453463,25.7922031 22.6349951,25.9323594 22.8439024,25.9323594 C22.8812585,25.9323594 22.9193659,25.9281615 22.9572683,25.9183437 C23.2072195,25.8564583 23.3590341,25.6060052 23.2966146,25.357651 L22.8303122,23.508875 Z" id="Fill-10"></path>
                    </g>
                </g>
            </g>
        </g>
    </g>
</svg>