<?xml version="1.0" encoding="UTF-8"?>
<svg width="70px" height="70px" viewBox="0 0 70 70" version="1.1" xmlns="http://www.w3.org/2000/svg" xmlns:xlink="http://www.w3.org/1999/xlink">
    <!-- Generator: Sketch 47.1 (45422) - http://www.bohemiancoding.com/sketch -->
    <title>university_black@1x</title>
    <desc>Created with Sketch.</desc>
    <defs></defs>
    <g id="Page-1" stroke="none" stroke-width="1" fill="none" fill-rule="evenodd">
        <g id="Final-Screen_1_Teacher" transform="translate(-926.000000, -150.000000)" fill="#4A4A4A">
            <g id="university_black" transform="translate(926.000000, 150.000000)">
                <g id="university">
                    <path d="M25.6418537,43.0876399 C25.6418537,43.729562 26.1639512,44.2505596 26.8069268,44.2505596 L31.4692683,44.2505596 C32.1129268,44.2505596 32.6345122,43.729562 32.6345122,43.0876399 L32.6345122,36.1113139 C32.6345122,35.4699027 32.1129268,34.9490754 31.4692683,34.9490754 L26.8069268,34.9490754 C26.1639512,34.9490754 25.6418537,35.4699027 25.6418537,36.1113139 L25.6418537,43.0876399 Z M27.9726829,41.9254015 L30.3035122,41.9254015 L30.3035122,37.2742336 L27.9726829,37.2742336 L27.9726829,41.9254015 Z" id="Fill-1"></path>
                    <path d="M26.8069268,30.2979075 L31.4692683,30.2979075 C32.1129268,30.2979075 32.6345122,29.7770803 32.6345122,29.1356691 L32.6345122,22.1593431 C32.6345122,21.5172506 32.1129268,20.9964234 31.4692683,20.9964234 L26.8069268,20.9964234 C26.1639512,20.9964234 25.6418537,21.5172506 25.6418537,22.1593431 L25.6418537,29.1356691 C25.6418537,29.7770803 26.1639512,30.2979075 26.8069268,30.2979075 Z M27.9726829,27.9727494 L30.3035122,27.9727494 L30.3035122,23.3222628 L27.9726829,23.3222628 L27.9726829,27.9727494 Z" id="Fill-2"></path>
                    <path d="M18.082878,21.992944 L34.9660244,11.8877372 L51.8484878,21.992944 C52.0357805,22.1062044 52.2439024,22.1593431 52.4472439,22.1593431 C52.8435122,22.1593431 53.2295366,21.9583698 53.4477317,21.5952555 C53.7798049,21.0442822 53.6003659,20.3304866 53.0489024,19.9997324 L36.1310976,9.87391727 L36.1310976,2.39328467 L41.9593659,2.39328467 L41.9593659,4.7192944 L38.4626098,4.7192944 C37.819122,4.7192944 37.2968537,5.24012165 37.2968537,5.88153285 C37.2968537,6.52345499 37.819122,7.04445255 38.4626098,7.04445255 L43.124439,7.04445255 C43.7679268,7.04445255 44.2901951,6.52345499 44.2901951,5.88153285 L44.2901951,1.23104623 C44.2901951,0.589124088 43.7679268,0.0681265207 43.124439,0.0681265207 L34.9660244,0.0681265207 C34.3223659,0.0681265207 33.8002683,0.589124088 33.8002683,1.23104623 L33.8002683,9.87391727 L16.8831463,20.0004136 C16.3315122,20.3304866 16.1520732,21.0442822 16.4843171,21.5952555 C16.8136585,22.1453771 17.5320976,22.3243796 18.082878,21.992944 Z" id="Fill-3"></path>
                    <path d="M12.8209268,44.2505596 C13.4644146,44.2505596 13.9866829,43.729562 13.9866829,43.0876399 L13.9866829,36.1119951 C13.9866829,35.4699027 13.4644146,34.9490754 12.8209268,34.9490754 L8.15841463,34.9490754 C7.51560976,34.9490754 6.99334146,35.4699027 6.99334146,36.1119951 L6.99334146,38.4371533 C6.99334146,39.0785645 7.51560976,39.5993917 8.15841463,39.5993917 C8.80207317,39.5993917 9.32417073,39.0785645 9.32417073,38.4371533 L9.32417073,37.2742336 L11.6551707,37.2742336 L11.6551707,43.0876399 C11.6551707,43.729562 12.1772683,44.2505596 12.8209268,44.2505596 Z" id="Fill-4"></path>
                    <path d="M20.9793415,59.3654501 L20.9793415,25.6474209 C20.9793415,25.0054988 20.4570732,24.4845012 19.8142683,24.4845012 C19.1706098,24.4845012 18.6485122,25.0054988 18.6485122,25.6474209 L18.6485122,59.3654501 C18.6485122,60.0075426 19.1706098,60.5283698 19.8142683,60.5283698 C20.4570732,60.5283698 20.9793415,60.0075426 20.9793415,59.3654501 Z" id="Fill-5"></path>
                    <path d="M15.1517561,65.1788564 L54.7796098,65.1788564 C55.4230976,65.1788564 55.9453659,64.6578589 55.9453659,64.016618 C55.9453659,63.3745255 55.4230976,62.8536983 54.7796098,62.8536983 L44.2901951,62.8536983 L44.2901951,51.2268856 L45.4552683,51.2268856 C46.0989268,51.2268856 46.6210244,50.7058881 46.6210244,50.0639659 C46.6210244,49.4225547 46.0989268,48.9017275 45.4552683,48.9017275 L24.4759268,48.9017275 C23.833122,48.9017275 23.3108537,49.4225547 23.3108537,50.0639659 C23.3108537,50.7058881 23.833122,51.2268856 24.4759268,51.2268856 L25.6418537,51.2268856 L25.6418537,62.8536983 L15.1517561,62.8536983 C14.5082683,62.8536983 13.9866829,63.3745255 13.9866829,64.0159367 C13.9866829,64.6578589 14.5082683,65.1788564 15.1517561,65.1788564 Z M36.1310976,58.2025304 C36.7747561,58.2025304 37.2968537,57.6815328 37.2968537,57.040292 C37.2968537,56.3981995 36.7747561,55.8773723 36.1310976,55.8773723 L36.1310976,51.2268856 L41.9593659,51.2268856 L41.9593659,62.8536983 L36.1310976,62.8536983 L36.1310976,58.2025304 Z M27.9726829,51.2268856 L33.8002683,51.2268856 L33.8002683,55.8773723 C33.1572927,55.8773723 32.6350244,56.3981995 32.6350244,57.040292 C32.6350244,57.6815328 33.1572927,58.2025304 33.8002683,58.2025304 L33.8002683,62.8536983 L27.9726829,62.8536983 L27.9726829,51.2268856 Z" id="Fill-6"></path>
                    <path d="M61.7727805,50.0639659 L57.111122,50.0639659 C56.4674634,50.0639659 55.9453659,50.5847932 55.9453659,51.2262044 L55.9453659,58.2025304 C55.9453659,58.8446229 56.4674634,59.3654501 57.111122,59.3654501 L61.7727805,59.3654501 C62.416439,59.3654501 62.9387073,58.8446229 62.9387073,58.2025304 L62.9387073,51.2262044 C62.9387073,50.5847932 62.416439,50.0639659 61.7727805,50.0639659 Z M58.2761951,57.040292 L60.6077073,57.040292 L60.6077073,52.3891241 L58.2761951,52.3891241 L58.2761951,57.040292 Z" id="Fill-7"></path>
                    <path d="M61.7727805,36.1113139 L57.111122,36.1113139 C56.4674634,36.1113139 55.9453659,36.6323114 55.9453659,37.2742336 L55.9453659,44.2505596 C55.9453659,44.8919708 56.4674634,45.4127981 57.111122,45.4127981 L61.7727805,45.4127981 C62.416439,45.4127981 62.9387073,44.8919708 62.9387073,44.2505596 L62.9387073,37.2742336 C62.9387073,36.6323114 62.416439,36.1113139 61.7727805,36.1113139 Z M58.2761951,43.0876399 L60.6077073,43.0876399 L60.6077073,38.4371533 L58.2761951,38.4371533 L58.2761951,43.0876399 Z" id="Fill-8"></path>
                    <path d="M59.4419512,67.5040146 L10.4899268,67.5040146 C9.84643902,67.5040146 9.32417073,68.0250122 9.32417073,68.6669343 C9.32417073,69.3083455 9.84643902,69.8300243 10.4899268,69.8300243 L59.4419512,69.8300243 C60.0856098,69.8300243 60.6077073,69.3090268 60.6077073,68.6669343 C60.6077073,68.0250122 60.0856098,67.5040146 59.4419512,67.5040146 Z" id="Fill-9"></path>
                    <path d="M68.766122,25.6474209 C68.1226341,25.6474209 67.6003659,26.1684185 67.6003659,26.8098297 L67.6003659,27.9727494 L54.780122,27.9727494 C54.1366341,27.9727494 53.6143659,28.4935766 53.6143659,29.1349878 C53.6143659,29.7770803 54.1366341,30.2979075 54.780122,30.2979075 L67.6003659,30.2979075 L67.6003659,68.6669343 C67.6003659,69.3083455 68.1226341,69.8293431 68.766122,69.8293431 C69.4097805,69.8293431 69.9320488,69.3083455 69.9320488,68.6669343 L69.9320488,26.8098297 C69.9320488,26.1684185 69.4097805,25.6474209 68.766122,25.6474209 Z" id="Fill-10"></path>
                    <path d="M37.2968537,43.0876399 C37.2968537,43.729562 37.819122,44.2505596 38.4626098,44.2505596 L43.124439,44.2505596 C43.7679268,44.2505596 44.2901951,43.729562 44.2901951,43.0876399 L44.2901951,36.1113139 C44.2901951,35.4699027 43.7679268,34.9490754 43.124439,34.9490754 L38.4626098,34.9490754 C37.819122,34.9490754 37.2968537,35.4699027 37.2968537,36.1113139 L37.2968537,43.0876399 Z M39.6276829,41.9254015 L41.9593659,41.9254015 L41.9593659,37.2742336 L39.6276829,37.2742336 L39.6276829,41.9254015 Z" id="Fill-11"></path>
                    <path d="M11.6551707,57.040292 C11.6551707,56.8892214 11.5890976,41.9254015 5.82758537,41.9254015 C0.0667560976,41.9254015 0,56.8892214 0,57.040292 C0,59.8477859 2.00609756,62.1955961 4.66182927,62.7358394 L4.66182927,68.6669343 C4.66182927,69.3090268 5.18392683,69.8300243 5.82758537,69.8300243 C6.47107317,69.8300243 6.99334146,69.3090268 6.99334146,68.6669343 L6.99334146,62.7358394 C9.6497561,62.1955961 11.6551707,59.8477859 11.6551707,57.040292 Z M5.82758537,60.5283698 C3.90019512,60.5283698 2.33082927,58.9629927 2.33082927,57.040292 C2.33082927,51.2474939 3.89080488,44.2505596 5.82758537,44.2505596 C7.76487805,44.2505596 9.32417073,51.2474939 9.32417073,57.040292 C9.32417073,58.9629927 7.75565854,60.5283698 5.82758537,60.5283698 Z" id="Fill-13"></path>
                    <path d="M51.2835366,59.3654501 L51.2835366,24.4845012 C51.2835366,23.8432603 50.7612683,23.3222628 50.1177805,23.3222628 C49.474122,23.3222628 48.9527073,23.8432603 48.9527073,24.4845012 L48.9527073,59.3654501 C48.9527073,60.0075426 49.474122,60.5283698 50.1177805,60.5283698 C50.7612683,60.5283698 51.2835366,60.0075426 51.2835366,59.3654501 Z" id="Fill-15"></path>
                    <path d="M38.4626098,30.2979075 L43.124439,30.2979075 C43.7679268,30.2979075 44.2901951,29.7770803 44.2901951,29.1356691 L44.2901951,22.1593431 C44.2901951,21.5172506 43.7679268,20.9964234 43.124439,20.9964234 L38.4626098,20.9964234 C37.819122,20.9964234 37.2968537,21.5172506 37.2968537,22.1593431 L37.2968537,29.1356691 C37.2968537,29.7770803 37.819122,30.2979075 38.4626098,30.2979075 Z M39.6276829,27.9727494 L41.9593659,27.9727494 L41.9593659,23.3222628 L39.6276829,23.3222628 L39.6276829,27.9727494 Z" id="Fill-16"></path>
                    <path d="M1.1657561,40.7624818 C1.80873171,40.7624818 2.33082927,40.2414842 2.33082927,39.5993917 L2.33082927,30.2979075 L15.1517561,30.2979075 C15.7954146,30.2979075 16.3175122,29.7770803 16.3175122,29.1356691 C16.3175122,28.4935766 15.7954146,27.9727494 15.1517561,27.9727494 L2.33082927,27.9727494 L2.33082927,26.8105109 C2.33082927,26.1684185 1.80873171,25.6474209 1.1657561,25.6474209 C0.522268293,25.6474209 0,26.1684185 0,26.8098297 L0,39.5993917 C0,40.2414842 0.522268293,40.7624818 1.1657561,40.7624818 Z" id="Fill-18"></path>
                </g>
            </g>
        </g>
    </g>
</svg>