<?xml version="1.0" encoding="UTF-8"?>
<svg width="32px" height="32px" viewBox="0 0 32 32" version="1.1" xmlns="http://www.w3.org/2000/svg" xmlns:xlink="http://www.w3.org/1999/xlink">
    <!-- Generator: Sketch 47.1 (45422) - http://www.bohemiancoding.com/sketch -->
    <title>university@1x</title>
    <desc>Created with Sketch.</desc>
    <defs></defs>
    <g id="Page-1" stroke="none" stroke-width="1" fill="none" fill-rule="evenodd">
        <g id="Results-Screen" transform="translate(-635.000000, -437.000000)" fill="#689D00">
            <g id="School_Choosen" transform="translate(615.000000, 423.000000)">
                <g id="university" transform="translate(20.000000, 14.000000)">
                    <g>
                        <path d="M11.7219902,19.6972068 C11.7219902,19.9906569 11.9606634,20.2288273 12.2545951,20.2288273 L14.3859512,20.2288273 C14.6801951,20.2288273 14.9186341,19.9906569 14.9186341,19.6972068 L14.9186341,16.5080292 C14.9186341,16.2148127 14.6801951,15.9767202 14.3859512,15.9767202 L12.2545951,15.9767202 C11.9606634,15.9767202 11.7219902,16.2148127 11.7219902,16.5080292 L11.7219902,19.6972068 Z M12.7875122,19.1658978 L13.8530341,19.1658978 L13.8530341,17.0396496 L12.7875122,17.0396496 L12.7875122,19.1658978 Z" id="Fill-1"></path>
                        <path d="M12.2545951,13.850472 L14.3859512,13.850472 C14.6801951,13.850472 14.9186341,13.6123796 14.9186341,13.319163 L14.9186341,10.1299854 C14.9186341,9.83645742 14.6801951,9.59836496 14.3859512,9.59836496 L12.2545951,9.59836496 C11.9606634,9.59836496 11.7219902,9.83645742 11.7219902,10.1299854 L11.7219902,13.319163 C11.7219902,13.6123796 11.9606634,13.850472 12.2545951,13.850472 Z M12.7875122,12.7875426 L13.8530341,12.7875426 L13.8530341,10.6616058 L12.7875122,10.6616058 L12.7875122,12.7875426 Z" id="Fill-2"></path>
                        <path d="M8.26645854,10.0539173 L15.9844683,5.43439416 L23.7021659,10.0539173 C23.7877854,10.1056934 23.8829268,10.1299854 23.9758829,10.1299854 C24.1570341,10.1299854 24.3335024,10.0381119 24.4332488,9.87211679 C24.5850537,9.62024331 24.5030244,9.29393674 24.2509268,9.14273479 L16.5170732,4.51379075 L16.5170732,1.09407299 L19.1814244,1.09407299 L19.1814244,2.15739173 L17.5829073,2.15739173 C17.2887415,2.15739173 17.0499902,2.39548418 17.0499902,2.68870073 C17.0499902,2.98215085 17.2887415,3.22032117 17.5829073,3.22032117 L19.7140293,3.22032117 C20.0081951,3.22032117 20.2469463,2.98215085 20.2469463,2.68870073 L20.2469463,0.56276399 C20.2469463,0.269313869 20.0081951,0.0311435523 19.7140293,0.0311435523 L15.9844683,0.0311435523 C15.6902244,0.0311435523 15.4515512,0.269313869 15.4515512,0.56276399 L15.4515512,4.51379075 L7.71800976,9.14304623 C7.46583415,9.29393674 7.38380488,9.62024331 7.5356878,9.87211679 C7.6862439,10.123601 8.01467317,10.2054307 8.26645854,10.0539173 Z" id="Fill-3"></path>
                        <path d="M5.86099512,20.2288273 C6.15516098,20.2288273 6.3939122,19.9906569 6.3939122,19.6972068 L6.3939122,16.5083406 C6.3939122,16.2148127 6.15516098,15.9767202 5.86099512,15.9767202 L3.72956098,15.9767202 C3.43570732,15.9767202 3.1969561,16.2148127 3.1969561,16.5083406 L3.1969561,17.5712701 C3.1969561,17.8644866 3.43570732,18.1025791 3.72956098,18.1025791 C4.02380488,18.1025791 4.26247805,17.8644866 4.26247805,17.5712701 L4.26247805,17.0396496 L5.32807805,17.0396496 L5.32807805,19.6972068 C5.32807805,19.9906569 5.56675122,20.2288273 5.86099512,20.2288273 Z" id="Fill-4"></path>
                        <path d="M9.5905561,27.1384915 L9.5905561,11.7245353 C9.5905561,11.4310852 9.35180488,11.1929148 9.05795122,11.1929148 C8.76370732,11.1929148 8.52503415,11.4310852 8.52503415,11.7245353 L8.52503415,27.1384915 C8.52503415,27.4320195 8.76370732,27.6701119 9.05795122,27.6701119 C9.35180488,27.6701119 9.5905561,27.4320195 9.5905561,27.1384915 Z" id="Fill-5"></path>
                        <path d="M6.92651707,29.7960487 L25.0421073,29.7960487 C25.3362732,29.7960487 25.5750244,29.5578783 25.5750244,29.2647397 C25.5750244,28.9712117 25.3362732,28.7331192 25.0421073,28.7331192 L20.2469463,28.7331192 L20.2469463,23.4180049 L20.7795512,23.4180049 C21.0737951,23.4180049 21.3124683,23.1798345 21.3124683,22.8863844 C21.3124683,22.5931679 21.0737951,22.3550754 20.7795512,22.3550754 L11.1889951,22.3550754 C10.8951415,22.3550754 10.6563902,22.5931679 10.6563902,22.8863844 C10.6563902,23.1798345 10.8951415,23.4180049 11.1889951,23.4180049 L11.7219902,23.4180049 L11.7219902,28.7331192 L6.92651707,28.7331192 C6.63235122,28.7331192 6.3939122,28.9712117 6.3939122,29.2644282 C6.3939122,29.5578783 6.63235122,29.7960487 6.92651707,29.7960487 Z M16.5170732,26.606871 C16.8113171,26.606871 17.0499902,26.3687007 17.0499902,26.075562 C17.0499902,25.7820341 16.8113171,25.5439416 16.5170732,25.5439416 L16.5170732,23.4180049 L19.1814244,23.4180049 L19.1814244,28.7331192 L16.5170732,28.7331192 L16.5170732,26.606871 Z M12.7875122,23.4180049 L15.4515512,23.4180049 L15.4515512,25.5439416 C15.1576195,25.5439416 14.9188683,25.7820341 14.9188683,26.075562 C14.9188683,26.3687007 15.1576195,26.606871 15.4515512,26.606871 L15.4515512,28.7331192 L12.7875122,28.7331192 L12.7875122,23.4180049 Z" id="Fill-6"></path>
                        <path d="M28.2389854,22.8863844 L26.1079415,22.8863844 C25.8136976,22.8863844 25.5750244,23.1244769 25.5750244,23.4176934 L25.5750244,26.606871 C25.5750244,26.900399 25.8136976,27.1384915 26.1079415,27.1384915 L28.2389854,27.1384915 C28.5332293,27.1384915 28.7719805,26.900399 28.7719805,26.606871 L28.7719805,23.4176934 C28.7719805,23.1244769 28.5332293,22.8863844 28.2389854,22.8863844 Z M26.6405463,26.075562 L27.7063805,26.075562 L27.7063805,23.9493139 L26.6405463,23.9493139 L26.6405463,26.075562 Z" id="Fill-7"></path>
                        <path d="M28.2389854,16.5080292 L26.1079415,16.5080292 C25.8136976,16.5080292 25.5750244,16.7461995 25.5750244,17.0396496 L25.5750244,20.2288273 C25.5750244,20.5220438 25.8136976,20.7601363 26.1079415,20.7601363 L28.2389854,20.7601363 C28.5332293,20.7601363 28.7719805,20.5220438 28.7719805,20.2288273 L28.7719805,17.0396496 C28.7719805,16.7461995 28.5332293,16.5080292 28.2389854,16.5080292 Z M26.6405463,19.6972068 L27.7063805,19.6972068 L27.7063805,17.5712701 L26.6405463,17.5712701 L26.6405463,19.6972068 Z" id="Fill-8"></path>
                        <path d="M27.1734634,30.8589781 L4.79539512,30.8589781 C4.50122927,30.8589781 4.26247805,31.0971484 4.26247805,31.3905985 C4.26247805,31.6838151 4.50122927,31.9222968 4.79539512,31.9222968 L27.1734634,31.9222968 C27.4677073,31.9222968 27.7063805,31.6841265 27.7063805,31.3905985 C27.7063805,31.0971484 27.4677073,30.8589781 27.1734634,30.8589781 Z" id="Fill-9"></path>
                        <path d="M31.4359415,11.7245353 C31.1417756,11.7245353 30.9030244,11.9627056 30.9030244,12.2559221 L30.9030244,12.7875426 L25.0423415,12.7875426 C24.7481756,12.7875426 24.5094244,13.025635 24.5094244,13.3188516 C24.5094244,13.6123796 24.7481756,13.850472 25.0423415,13.850472 L30.9030244,13.850472 L30.9030244,31.3905985 C30.9030244,31.6838151 31.1417756,31.9219854 31.4359415,31.9219854 C31.7301854,31.9219854 31.9689366,31.6838151 31.9689366,31.3905985 L31.9689366,12.2559221 C31.9689366,11.9627056 31.7301854,11.7245353 31.4359415,11.7245353 Z" id="Fill-10"></path>
                        <path d="M17.0499902,19.6972068 C17.0499902,19.9906569 17.2887415,20.2288273 17.5829073,20.2288273 L19.7140293,20.2288273 C20.0081951,20.2288273 20.2469463,19.9906569 20.2469463,19.6972068 L20.2469463,16.5080292 C20.2469463,16.2148127 20.0081951,15.9767202 19.7140293,15.9767202 L17.5829073,15.9767202 C17.2887415,15.9767202 17.0499902,16.2148127 17.0499902,16.5080292 L17.0499902,19.6972068 Z M18.1155122,19.1658978 L19.1814244,19.1658978 L19.1814244,17.0396496 L18.1155122,17.0396496 L18.1155122,19.1658978 Z" id="Fill-11"></path>
                        <path d="M5.32807805,26.075562 C5.32807805,26.0065012 5.29787317,19.1658978 2.66403902,19.1658978 C0.0305170732,19.1658978 0,26.0065012 0,26.075562 C0,27.3589878 0.917073171,28.4322725 2.13112195,28.6792409 L2.13112195,31.3905985 C2.13112195,31.6841265 2.36979512,31.9222968 2.66403902,31.9222968 C2.95820488,31.9222968 3.1969561,31.6841265 3.1969561,31.3905985 L3.1969561,28.6792409 C4.41131707,28.4322725 5.32807805,27.3589878 5.32807805,26.075562 Z M2.66403902,27.6701119 C1.78294634,27.6701119 1.06552195,26.9545109 1.06552195,26.075562 C1.06552195,23.4274258 1.77865366,20.2288273 2.66403902,20.2288273 C3.54965854,20.2288273 4.26247805,23.4274258 4.26247805,26.075562 C4.26247805,26.9545109 3.5454439,27.6701119 2.66403902,27.6701119 Z" id="Fill-13"></path>
                        <path d="M23.4439024,27.1384915 L23.4439024,11.1929148 C23.4439024,10.8997762 23.2051512,10.6616058 22.9109854,10.6616058 C22.6167415,10.6616058 22.3783805,10.8997762 22.3783805,11.1929148 L22.3783805,27.1384915 C22.3783805,27.4320195 22.6167415,27.6701119 22.9109854,27.6701119 C23.2051512,27.6701119 23.4439024,27.4320195 23.4439024,27.1384915 Z" id="Fill-15"></path>
                        <path d="M17.5829073,13.850472 L19.7140293,13.850472 C20.0081951,13.850472 20.2469463,13.6123796 20.2469463,13.319163 L20.2469463,10.1299854 C20.2469463,9.83645742 20.0081951,9.59836496 19.7140293,9.59836496 L17.5829073,9.59836496 C17.2887415,9.59836496 17.0499902,9.83645742 17.0499902,10.1299854 L17.0499902,13.319163 C17.0499902,13.6123796 17.2887415,13.850472 17.5829073,13.850472 Z M18.1155122,12.7875426 L19.1814244,12.7875426 L19.1814244,10.6616058 L18.1155122,10.6616058 L18.1155122,12.7875426 Z" id="Fill-16"></path>
                        <path d="M0.532917073,18.6342774 C0.82684878,18.6342774 1.06552195,18.3961071 1.06552195,18.1025791 L1.06552195,13.850472 L6.92651707,13.850472 C7.22076098,13.850472 7.45943415,13.6123796 7.45943415,13.319163 C7.45943415,13.025635 7.22076098,12.7875426 6.92651707,12.7875426 L1.06552195,12.7875426 L1.06552195,12.2562336 C1.06552195,11.9627056 0.82684878,11.7245353 0.532917073,11.7245353 C0.23875122,11.7245353 0,11.9627056 0,12.2559221 L0,18.1025791 C0,18.3961071 0.23875122,18.6342774 0.532917073,18.6342774 Z" id="Fill-18"></path>
                    </g>
                </g>
            </g>
        </g>
    </g>
</svg>